<?xml version="1.0" encoding="UTF-8"?>
<svg version="1.1" xmlns="http://www.w3.org/2000/svg" width="512" height="512">
<path d="M0 0 C168.96 0 337.92 0 512 0 C512 168.96 512 337.92 512 512 C343.04 512 174.08 512 0 512 C0 343.04 0 174.08 0 0 Z " fill="#000000" transform="translate(0,0)"/>
<path d="M0 0 C113.6954607 0 113.6954607 0 143 29 C161.80855752 48.69146278 169.84072539 73.59029395 169.41162109 100.50683594 C169.37468125 102.89561223 169.37060699 105.28283977 169.37109375 107.671875 C169.31794636 119.75628227 168.21700539 130.99569883 163.875 142.375 C163.56715576 143.18662598 163.25931152 143.99825195 162.94213867 144.83447266 C154.04823192 167.56757603 137.99646122 184.33325535 116 195 C79.64681534 210.59147698 38.14674122 204 0 204 C0 136.68 0 69.36 0 0 Z " fill="#FBFBFB" transform="translate(83,154)"/>
<path d="M0 0 C101.98167067 0 101.98167067 0 123.875 20.375 C137.85155004 35.38941267 142.97086433 54.38393544 142.40625 74.3828125 C141.41455976 92.53694187 133.45861376 109.68724345 120 122 C105.39758016 134.10308383 90.18298127 138.1822131 71.50390625 138.09765625 C70.44941284 138.09664917 69.39491943 138.09564209 68.30847168 138.09460449 C64.39313662 138.08939737 60.47781715 138.0754362 56.5625 138.0625 C47.796875 138.041875 39.03125 138.02125 30 138 C30 160.11 30 182.22 30 205 C20.1 205 10.2 205 0 205 C0 137.35 0 69.7 0 0 Z " fill="#FCFCFC" transform="translate(287,154)"/>
<path d="M0 0 C67.21746422 0 67.21746422 0 89.75 21.3125 C105.64400424 37.86046148 108.57597693 58.37603749 108.55981445 80.41137695 C108.21201416 95.5830173 104.58964748 109.95350069 95 122 C94.03320312 123.2684375 94.03320312 123.2684375 93.046875 124.5625 C81.70623833 138.33927343 66.13584012 144.57283198 49 148 C32.83 148 16.66 148 0 148 C0 99.16 0 50.32 0 0 Z " fill="#020202" transform="translate(113,182)"/>
<path d="M0 0 C10.51875 -0.0928125 10.51875 -0.0928125 21.25 -0.1875 C23.43786133 -0.21481201 25.62572266 -0.24212402 27.87988281 -0.27026367 C43.76886537 -0.38669129 59.20180255 0.963192 71.47265625 12.28125 C79.59620488 21.42283925 81.51113398 32.6875863 81.21484375 44.52734375 C80.59408772 54.56101857 76.75733905 64.97725449 69.25 71.9375 C58.79482165 80.10249642 48.05229963 82.33567746 35.05859375 82.1953125 C34.16338013 82.19329834 33.2681665 82.19128418 32.3458252 82.18920898 C29.04299704 82.17884695 25.74024266 82.15092546 22.4375 82.125 C11.3309375 82.063125 11.3309375 82.063125 0 82 C0 54.94 0 27.88 0 0 Z " fill="#020202" transform="translate(317,182)"/>
</svg>
